<svg xmlns="http://www.w3.org/2000/svg" xmlns:xlink="http://www.w3.org/1999/xlink" width="64" zoomAndPan="magnify" viewBox="0 0 48 48" height="64" preserveAspectRatio="xMidYMid meet" version="1.2"><defs><clipPath id="b19ec532ef"><path d="M 15 0.597656 L 33 0.597656 L 33 14 L 15 14 Z M 15 0.597656 "/></clipPath><clipPath id="79287fc432"><path d="M 4.238281 10 L 43.910156 10 L 43.910156 46.148438 L 4.238281 46.148438 Z M 4.238281 10 "/></clipPath><clipPath id="3169a0838a"><path d="M 14.179688 21 L 34 21 L 34 38.5 L 14.179688 38.5 Z M 14.179688 21 "/></clipPath></defs><g id="ff5f047341"><g clip-rule="nonzero" clip-path="url(#b19ec532ef)"><path style=" stroke:none;fill-rule:evenodd;fill:#323131;fill-opacity:1;" d="M 15.214844 12.160156 C 15.214844 12.816406 15.75 13.347656 16.40625 13.347656 L 31.355469 13.347656 C 32.011719 13.347656 32.542969 12.816406 32.542969 12.160156 L 32.542969 9.398438 C 32.542969 7.097656 31.632812 4.894531 30.007812 3.269531 C 28.378906 1.644531 26.175781 0.734375 23.878906 0.734375 L 23.878906 1.921875 C 23.878906 0.734375 23.878906 0.734375 23.878906 0.734375 C 21.582031 0.734375 19.378906 1.644531 17.753906 3.269531 C 16.128906 4.894531 15.214844 7.097656 15.214844 9.398438 C 15.214844 9.398438 15.214844 12.160156 15.214844 12.160156 Z M 30.167969 10.972656 L 30.167969 9.398438 C 30.167969 7.730469 29.503906 6.128906 28.324219 4.949219 C 27.148438 3.769531 25.546875 3.109375 23.878906 3.109375 L 23.878906 1.921875 L 23.878906 3.109375 C 22.210938 3.109375 20.613281 3.769531 19.433594 4.949219 C 18.253906 6.128906 17.59375 7.730469 17.59375 9.398438 L 17.59375 10.972656 Z M 30.167969 10.972656 "/></g><g clip-rule="nonzero" clip-path="url(#79287fc432)"><path style=" stroke:none;fill-rule:evenodd;fill:#323131;fill-opacity:1;" d="M 40.332031 14.832031 C 40.078125 12.632812 38.21875 10.972656 36.003906 10.972656 C 30.296875 10.972656 17.460938 10.972656 11.757812 10.972656 C 9.542969 10.972656 7.679688 12.632812 7.429688 14.832031 C 6.746094 20.777344 5.164062 34.628906 4.414062 41.160156 C 4.273438 42.394531 4.667969 43.628906 5.492188 44.554688 C 6.320312 45.480469 7.5 46.011719 8.742188 46.011719 C 15.878906 46.011719 31.882812 46.011719 39.015625 46.011719 C 40.257812 46.011719 41.441406 45.480469 42.265625 44.554688 C 43.09375 43.628906 43.484375 42.394531 43.34375 41.160156 Z M 40.332031 14.832031 "/></g><g clip-rule="nonzero" clip-path="url(#3169a0838a)"><path style=" stroke:none;fill-rule:nonzero;fill:#ffffff;fill-opacity:1;" d="M 23.839844 23.9375 C 24.183594 23.59375 24.476562 23.277344 24.792969 22.988281 C 26.511719 21.410156 28.90625 21.074219 30.730469 22.152344 C 32.625 23.269531 33.597656 25.664062 33.054688 27.953125 C 32.648438 29.683594 31.683594 31.117188 30.554688 32.449219 C 28.675781 34.664062 26.410156 36.441406 24.074219 38.136719 C 23.972656 38.210938 23.734375 38.238281 23.640625 38.171875 C 20.792969 36.097656 18.019531 33.933594 16 30.984375 C 15.148438 29.738281 14.511719 28.390625 14.457031 26.847656 C 14.386719 24.695312 15.59375 22.707031 17.429688 21.90625 C 19.246094 21.109375 21.457031 21.589844 23.011719 23.121094 C 23.28125 23.382812 23.542969 23.648438 23.839844 23.9375 Z M 23.839844 23.9375 "/><path style=" stroke:none;fill-rule:nonzero;fill:#ffffff;fill-opacity:1;" d="M 23.808594 38.398438 C 23.703125 38.398438 23.601562 38.375 23.53125 38.324219 C 20.773438 36.316406 17.90625 34.101562 15.847656 31.089844 C 14.820312 29.585938 14.320312 28.242188 14.269531 26.855469 C 14.195312 24.628906 15.433594 22.570312 17.351562 21.734375 C 19.25 20.902344 21.523438 21.394531 23.144531 22.988281 C 23.324219 23.164062 23.503906 23.339844 23.691406 23.527344 L 23.839844 23.675781 C 23.902344 23.609375 23.964844 23.542969 24.027344 23.480469 C 24.242188 23.257812 24.449219 23.050781 24.664062 22.851562 C 26.445312 21.214844 28.921875 20.867188 30.824219 21.988281 C 32.804688 23.15625 33.796875 25.628906 33.238281 27.996094 C 32.78125 29.929688 31.640625 31.457031 30.695312 32.570312 C 28.769531 34.84375 26.425781 36.660156 24.183594 38.289062 C 24.09375 38.355469 23.945312 38.398438 23.808594 38.398438 Z M 19.273438 21.710938 C 18.667969 21.710938 18.066406 21.828125 17.503906 22.074219 C 15.722656 22.855469 14.574219 24.769531 14.644531 26.839844 C 14.691406 28.15625 15.171875 29.4375 16.15625 30.875 C 18.183594 33.84375 21.019531 36.03125 23.753906 38.019531 C 23.785156 38.03125 23.921875 38.015625 23.964844 37.984375 C 26.1875 36.371094 28.507812 34.570312 30.410156 32.328125 C 31.328125 31.246094 32.433594 29.765625 32.871094 27.910156 C 33.394531 25.699219 32.472656 23.398438 30.632812 22.3125 C 28.875 21.273438 26.578125 21.601562 24.917969 23.128906 C 24.710938 23.320312 24.507812 23.523438 24.296875 23.742188 C 24.191406 23.847656 24.085938 23.957031 23.972656 24.070312 C 23.898438 24.144531 23.78125 24.144531 23.707031 24.074219 L 23.425781 23.792969 C 23.238281 23.609375 23.0625 23.429688 22.882812 23.253906 C 21.855469 22.246094 20.554688 21.710938 19.273438 21.710938 Z M 19.273438 21.710938 "/></g></g></svg>